<svg xmlns="http://www.w3.org/2000/svg" viewBox="0 0 2048 2048">
  <path fill="#FFFFFF" d="M 800.046 1118.637 L 844.281 1103.4 C 848.491 1101.25 860.519 1097.08 865.35 1095.29 L 907.683 1079.57 C 867.72 1125.04 823.301 1172.27 773.046 1206.42 C 745.98 1224.82 715.075 1237.65 689.797 1258.74 C 684.477 1263.18 680.892 1267.94 677.072 1273.68 C 665.341 1291.33 581.714 1435.28 582.048 1443.26 C 582.495 1453.97 594.329 1462.45 601.412 1469.39 C 571.881 1483.39 542.711 1496.23 516.18 1515.59 C 514.929 1516.5 514.55 1515.93 513.219 1515.4 C 513.173 1515.06 513.081 1514.71 513.08 1514.36 C 513.054 1508.08 566.248 1418.23 573.462 1403.97 C 589.965 1371.35 605.153 1337.98 621.332 1305.18 C 650.5 1246.43 680.256 1187.96 710.594 1129.8 C 744.89 1063.82 773.074 1009.43 816.107 947.569 C 873.296 865.357 928.715 804.623 1002.48 738.459 L 1010.676 730.02 L 1001.3 736.449 C 898.364 820.795 798.098 944.27 733.25 1059.65 C 700.413 1118.08 671.543 1179.73 638.667 1239.49 C 636.131 1237.87 633.717 1236.07 631.446 1234.09 C 599.748 1207.06 592.824 1171.29 589.963 1132.21 C 596.486 1139.04 621.027 1163.68 628.195 1167.85 C 627.547 1165.42 624.223 1163.09 622.244 1160.75 C 610.04 1146.12 593.233 1131.93 591.464 1111.76 C 590.627 1102.2 592.782 1092.61 594.633 1083.25 C 600.302 1054.6 604.064 1024.78 612.819 996.878 C 628.698 946.266 662.268 902.783 695.655 862.458 C 696.263 880.506 703.212 906.767 715.978 920.213 C 707.615 847.603 726.694 819.422 775.453 770.67 C 836.795 709.337 902.881 657.486 981.363 619.783 C 963.946 646.811 948.89 676.953 954.54 709.802 C 963.743 682.086 978.666 656.727 996.533 633.735 C 1009.83 616.621 1024.73 602.816 1042.98 591.077 C 1113.46 545.745 1274.84 500.713 1359.04 490.285 C 1337.28 500.017 1317.56 508.388 1296.11 519.192 L 1272.628 530.985 L 1265.907 534.934 L 1272.431 532.463 L 1298.37 520.374 C 1322.21 509.789 1375.37 490.58 1400.44 485.763 C 1431.52 479.791 1505.28 479.981 1535.77 487.625 C 1505.49 505.332 1478.014 521.441 1449.084 541.274 C 1436.204 550.135 1417.146 561.948 1404.44 569.823 C 1393.975 576.946 1378.277 587.63 1365.907 594.051 C 1342.107 606.453 1314.24 621.934 1290.88 635.131 C 1310.44 630.068 1332.34 621.248 1352.49 615.386 C 1336.42 629.051 1318.94 644.932 1301.35 656.186 C 1267.59 677.795 1228.041 688.26 1189.8 699.205 L 1149.39 711.547 L 1113.599 722.159 L 1104.546 725.519 L 1099.553 727.974 L 1115.443 723.84 L 1127.763 720.387 L 1151.48 713.492 C 1185.816 704.308 1237.32 690.531 1276.99 681.214 C 1244.42 716.438 1210.738 753.765 1175.228 785.808 C 1159.328 800.156 1157.128 803.397 1136.999 820.603 C 1124.19 831.552 1092.73 843.807 1076.51 849.293 C 1046.1 859.556 1015.58 869.468 984.942 879.027 C 970.641 883.427 944.675 890.304 932.293 895.306 C 977.603 891.636 1055.61 870.611 1100.78 858.063 C 1081.99 877.586 1065.18 895.341 1047.67 916.804 C 1004.47 969.757 962.784 1032.62 906.473 1072.57 C 895.597 1080.28 856.276 1095.67 842.209 1101.48"/>
  <path fill="#FFFFFF" d="M 567.096 1458.48 C 570.692 1456.67 575.078 1458.13 576.86 1461.75 C 578.642 1465.36 577.135 1469.73 573.506 1471.48 C 569.925 1473.2 565.625 1471.72 563.867 1468.16 C 562.109 1464.59 563.55 1460.28 567.096 1458.48 z"/>
  <path fill="#FFFFFF" d="M 1308.14 1526.51 C 1281.75 1540.19 1271.62 1561.61 1236.02 1549.46 C 1209.75 1540.49 1189.92 1510.66 1160.48 1526.07 C 1130.9 1541.55 1111.99 1565.68 1074.93 1551.57 C 1046.83 1540.86 1029.26 1521.46 997.756 1515.79 C 958.728 1508.77 926.362 1518.94 886.708 1519.08 C 802.084 1519.38 717.939 1514.81 633.503 1512.85 C 630.036 1512.03 625.487 1511.62 621.864 1511.17 C 710.286 1507.46 798.989 1508.13 887.478 1505.96 C 923.426 1505.08 951.896 1495.98 987.999 1499.57 C 1003.66 1501.08 1018.94 1505.36 1033.11 1512.21 C 1050.43 1520.61 1077.11 1541.03 1095.77 1541.03 C 1125.15 1540.19 1142.6 1511.6 1171.97 1508.29 C 1205.18 1503.88 1224.2 1540.97 1255.65 1541.35 C 1280.61 1541.66 1295.17 1513.51 1320.6 1514.78 C 1356.54 1516.58 1364.02 1565.58 1402.84 1563.01 C 1418.17 1562 1426.78 1556.05 1438.33 1547 C 1436.51 1552.03 1422.96 1560.12 1417.64 1562.44 C 1404.44 1568.17 1395.16 1567.93 1382.29 1564.04 C 1356.04 1556.1 1339.02 1510.49 1308.14 1526.51 Z"/>
</svg>
